<svg width="87" height="88" viewBox="0 0 87 88" fill="none" xmlns="http://www.w3.org/2000/svg">
<g clip-path="url(#clip0)" filter="url(#filter0_d)">
<rect x="3" width="80" height="80" rx="40" fill="#00AAFF"/>
<path d="M54.2114 63.2875C60.8104 63.2875 66.16 57.938 66.16 51.3389C66.16 44.7399 60.8104 39.3904 54.2114 39.3904C47.6124 39.3904 42.2628 44.7399 42.2628 51.3389C42.2628 57.938 47.6124 63.2875 54.2114 63.2875Z" fill="white"/>
<path d="M31.7525 56.9009C34.8242 56.9009 37.3144 54.4108 37.3144 51.339C37.3144 48.2672 34.8242 45.7771 31.7525 45.7771C28.6807 45.7771 26.1906 48.2672 26.1906 51.339C26.1906 54.4108 28.6807 56.9009 31.7525 56.9009Z" fill="white"/>
<path d="M54.2114 36.5713C58.4593 36.5713 61.9029 33.1278 61.9029 28.8799C61.9029 24.632 58.4593 21.1885 54.2114 21.1885C49.9636 21.1885 46.52 24.632 46.52 28.8799C46.52 33.1278 49.9636 36.5713 54.2114 36.5713Z" fill="white"/>
<path d="M31.7524 38.699C37.1753 38.699 41.5714 34.3029 41.5714 28.88C41.5714 23.4571 37.1753 19.0609 31.7524 19.0609C26.3295 19.0609 21.9333 23.4571 21.9333 28.88C21.9333 34.3029 26.3295 38.699 31.7524 38.699Z" fill="white"/>
</g>
<defs>
<filter id="filter0_d" x="0" y="0" width="88" height="88" filterUnits="userSpaceOnUse" color-interpolation-filters="sRGB">
<feFlood flood-opacity="0" result="BackgroundImageFix"/>
<feColorMatrix in="SourceAlpha" type="matrix" values="0 0 0 0 0 0 0 0 0 0 0 0 0 0 0 0 0 0 127 0"/>
<feOffset dy="4"/>
<feGaussianBlur stdDeviation="2"/>
<feColorMatrix type="matrix" values="0 0 0 0 0 0 0 0 0 0 0 0 0 0 0 0 0 0 0.25 0"/>
<feBlend mode="normal" in2="BackgroundImageFix" result="effect1_dropShadow"/>
<feBlend mode="normal" in="SourceGraphic" in2="effect1_dropShadow" result="shape"/>
</filter>
<clipPath id="clip0">
<rect width="80" height="80" fill="white" transform="translate(4)"/>
</clipPath>
</defs>
</svg>
